<svg viewBox="0 0 512.00012 512" xmlns="http://www.w3.org/2000/svg"><path d="m196.042969 294.742188 128.640625-128.640626 21.210937 21.210938-128.640625 128.644531zm0 0" fill="#dce1eb"/><path d="m206.648438 305.347656 128.640624-128.640625 10.605469 10.605469-128.640625 128.644531zm0 0" fill="#cdd2e1"/><path d="m182.824219 161.902344 167.273437 167.273437-217.589844 165.925781c-32.839843 25.046876-79.140624 21.941407-108.347656-7.261718-29.203125-29.207032-32.308594-75.507813-7.265625-108.351563zm0 0" fill="#eaaa28"/><path d="m266.460938 245.539062 83.636718 83.636719-217.589844 165.925781c-32.839843 25.046876-79.140624 21.941407-108.347656-7.261718 44.128906-44.128906 242.300782-242.300782 242.300782-242.300782zm0 0" fill="#e0911b"/><path d="m496.332031 15.667969c20.890625 20.894531 20.890625 54.765625 0 75.65625l-145.300781 145.300781-75.65625-75.65625 145.300781-145.300781c20.890625-20.890625 54.761719-20.890625 75.65625 0zm0 0" fill="#bc6829"/><path d="m496.332031 15.667969c20.890625 20.894531 20.890625 54.765625 0 75.65625l-145.300781 145.300781-37.828125-37.828125s148.035156-148.035156 183.128906-183.128906zm0 0" fill="#9e5015"/><path d="m326.285156 110.054688 21.214844-21.210938 75.65625 75.65625-21.214844 21.210938zm0 0" fill="#e9edf5"/><path d="m364.113281 147.882812 21.214844-21.210937 37.828125 37.828125-21.214844 21.210938zm0 0" fill="#cdd2e1"/></svg>